<svg width="26" height="24" fill="none" xmlns="http://www.w3.org/2000/svg"><g clip-path="url(#clip0)" fill="#ccc"><path d="M4.81 9.933a2.575 2.575 0 00-.9.925 2.498 2.498 0 000 2.47c.214.377.524.696.9.925a8.562 8.562 0 003.13 4.625 8.93 8.93 0 005.375 1.79 8.93 8.93 0 005.375-1.79 8.562 8.562 0 003.13-4.625c.376-.228.687-.546.903-.924a2.494 2.494 0 000-2.472 2.57 2.57 0 00-.903-.924 8.562 8.562 0 00-3.13-4.625 8.93 8.93 0 00-5.375-1.791 8.93 8.93 0 00-5.376 1.79 8.562 8.562 0 00-3.13 4.626zm8.539 9.382a7.101 7.101 0 01-4.122-1.273 6.824 6.824 0 01-2.562-3.398h13.332a6.712 6.712 0 01-2.533 3.408 6.99 6.99 0 01-4.115 1.263zm-4.898-7.217a1.271 1.271 0 01.22-.72 1.32 1.32 0 01.593-.479 1.357 1.357 0 011.447.275 1.265 1.265 0 01.293 1.409c-.1.237-.268.44-.486.583a1.35 1.35 0 01-1.677-.157 1.293 1.293 0 01-.39-.916v.005zm7.075 0c-.001-.258.076-.51.222-.724a1.32 1.32 0 01.598-.48 1.363 1.363 0 011.453.28 1.27 1.27 0 01.288 1.418c-.102.238-.273.44-.493.583a1.356 1.356 0 01-1.25.118 1.329 1.329 0 01-.431-.282 1.293 1.293 0 01-.387-.918v.005zm4.444-2.552H6.612a6.711 6.711 0 012.534-3.43A6.988 6.988 0 0113.28 4.85a7.111 7.111 0 014.129 1.282A6.833 6.833 0 0119.97 9.54v.005z"/><path d="M.8 12.093v.067c0 6.531 5.215 11.815 12.48 11.815 7.266 0 12.555-5.35 12.555-11.857v-.067C25.835 5.494 20.62.21 13.35.21 6.078.21.799 5.561.799 12.093zm23.387 0c0 2.098-.638 4.15-1.833 5.895a10.821 10.821 0 01-4.882 3.907 11.128 11.128 0 01-6.284.603 10.961 10.961 0 01-5.568-2.905 10.531 10.531 0 01-2.974-5.434 10.37 10.37 0 01.62-6.13 10.67 10.67 0 014.008-4.76 11.07 11.07 0 016.043-1.786A11.025 11.025 0 0121 4.596a10.49 10.49 0 013.187 7.497z"/></g><defs><clipPath id="clip0"><path fill="#fff" transform="translate(.8 .21)" d="M0 0h25.036v23.765H0z"/></clipPath></defs></svg>